<svg width="25" height="25" viewBox="0 0 25 25" fill="none" xmlns="http://www.w3.org/2000/svg">
<path d="M20.3124 8.32499L12.4999 15.9422L4.6874 8.32499C4.54105 8.17864 4.37021 8.10546 4.1749 8.10546C3.97959 8.10546 3.80876 8.17864 3.6624 8.32499C3.51605 8.47135 3.44287 8.64218 3.44287 8.83749C3.44287 9.0328 3.50798 9.19556 3.63818 9.32577L11.9632 17.4312C12.1095 17.5776 12.2887 17.6508 12.5007 17.6508C12.7127 17.6508 12.8918 17.5776 13.0382 17.4312L21.3632 9.34999C21.4934 9.20364 21.5585 9.02864 21.5585 8.82499C21.5585 8.62134 21.4853 8.45051 21.339 8.31249C21.1926 8.17447 21.0218 8.1052 20.8265 8.10468C20.6312 8.10416 20.4603 8.17733 20.314 8.32421L20.3124 8.32499Z" fill="#B5AF9D"/>
</svg>
