<svg width="50" height="50" viewBox="0 0 50 50" fill="none" xmlns="http://www.w3.org/2000/svg">
<path d="M10.9375 23.4375H42.1875C42.6437 23.4375 43.0182 23.5839 43.3109 23.8766C43.6036 24.1693 43.75 24.5437 43.75 25C43.75 25.4562 43.6036 25.8307 43.3109 26.1234C43.0182 26.4161 42.6437 26.5625 42.1875 26.5625H10.9375C10.4813 26.5625 10.1068 26.4161 9.81406 26.1234C9.52135 25.8307 9.375 25.4562 9.375 25C9.375 24.5437 9.52135 24.1693 9.81406 23.8766C10.1068 23.5839 10.4813 23.4375 10.9375 23.4375ZM11.5719 25L24.5609 37.9391C24.8536 38.2651 25 38.6396 25 39.0625C25 39.4854 24.8453 39.8516 24.5359 40.1609C24.2266 40.4703 23.8604 40.625 23.4375 40.625C23.0146 40.625 22.6401 40.4786 22.3141 40.1859L8.25156 26.1234C7.95885 25.7974 7.8125 25.4229 7.8125 25C7.8125 24.5771 7.95885 24.2026 8.25156 23.8766L22.3141 9.81406C22.6401 9.52135 23.0146 9.375 23.4375 9.375C23.8604 9.375 24.2266 9.52969 24.5359 9.83906C24.8453 10.1484 25 10.5146 25 10.9375C25 11.3604 24.8536 11.7349 24.5609 12.0609L11.5719 25Z" fill="#343229"/>
</svg>
