<svg width="29" height="24" viewBox="0 0 29 24" fill="none" xmlns="http://www.w3.org/2000/svg">
<path d="M3.3125 10.8125H27.0625C27.4093 10.8125 27.6939 10.9237 27.9163 11.1462C28.1388 11.3686 28.25 11.6532 28.25 12C28.25 12.3468 28.1388 12.6314 27.9163 12.8538C27.6939 13.0763 27.4093 13.1875 27.0625 13.1875H3.3125C2.96575 13.1875 2.68115 13.0763 2.45869 12.8538C2.23623 12.6314 2.125 12.3468 2.125 12C2.125 11.6532 2.23623 11.3686 2.45869 11.1462C2.68115 10.9237 2.96575 10.8125 3.3125 10.8125ZM3.79463 12L13.6663 21.8337C13.8888 22.0815 14 22.3661 14 22.6875C14 23.0089 13.8824 23.2872 13.6473 23.5223C13.4122 23.7574 13.1339 23.875 12.8125 23.875C12.4911 23.875 12.2065 23.7638 11.9587 23.5413L1.27119 12.8538C1.04873 12.606 0.9375 12.3214 0.9375 12C0.9375 11.6786 1.04873 11.394 1.27119 11.1462L11.9587 0.458688C12.2065 0.236229 12.4911 0.125 12.8125 0.125C13.1339 0.125 13.4122 0.242562 13.6473 0.477687C13.8824 0.712812 14 0.991083 14 1.3125C14 1.63392 13.8888 1.91852 13.6663 2.16631L3.79463 12Z" fill="white"/>
</svg>
