<svg width="20" height="37" viewBox="0 0 20 37" fill="none" xmlns="http://www.w3.org/2000/svg">
<path d="M10 13C12.521 13.2293 14.4793 14.146 15.875 15.75C17.2707 17.354 17.979 18.2707 18 18.5C17.979 18.7293 17.2707 19.646 15.875 21.25C14.4793 22.854 12.521 23.7707 10 24C7.479 23.7707 5.52067 22.854 4.125 21.25C2.72933 19.646 2.021 18.7293 2 18.5C2.021 18.2707 2.72933 17.354 4.125 15.75C5.52067 14.146 7.479 13.2293 10 13ZM10 14C8.229 14.1147 6.755 14.711 5.578 15.789C4.401 16.867 3.59883 17.7707 3.1715 18.5C3.5985 19.2293 4.40067 20.133 5.578 21.211C6.75533 22.289 8.22933 22.8853 10 23C11.771 22.8853 13.245 22.289 14.422 21.211C15.599 20.133 16.4012 19.2293 16.8285 18.5C16.4015 17.7707 15.5993 16.867 14.422 15.789C13.2447 14.711 11.7707 14.1147 10 14ZM10 15C10.9897 15.021 11.8152 15.3622 12.4765 16.0235C13.1378 16.6848 13.479 17.5103 13.5 18.5C13.479 19.4897 13.1378 20.3152 12.4765 20.9765C11.8152 21.6378 10.9897 21.979 10 22C9.01033 21.979 8.18483 21.6378 7.5235 20.9765C6.86217 20.3152 6.521 19.4897 6.5 18.5C6.521 17.5103 6.86217 16.6848 7.5235 16.0235C8.18483 15.3622 9.01033 15.021 10 15ZM10 16C9.29167 16.021 8.70317 16.2658 8.2345 16.7345C7.76583 17.2032 7.521 17.7917 7.5 18.5C7.521 19.2083 7.76583 19.7968 8.2345 20.2655C8.70317 20.7342 9.29167 20.979 10 21C10.7083 20.979 11.2968 20.7342 11.7655 20.2655C12.2342 19.7968 12.479 19.2083 12.5 18.5C12.479 17.7917 12.2342 17.2032 11.7655 16.7345C11.2968 16.2658 10.7083 16.021 10 16Z" fill="#434136"/>
</svg>
